PathFileType	4	(X/Y/Z)	/home/abdul/Desktop/myosuite/custom_workspace/IK/output/S5_12_2.trc
DataRate	CameraRate	NumFrames	NumMarkers	Units	OrigDataRate	OrigDataStartFrame	OrigNumFrames
200.0	200.0	28	3	mm	200.0	1	1396
Frame#	Time	V_Shoulder			V_Elbow			V_Wrist		
		X1	Y1	Z1	X2	Y2	Z2	X3	Y3	Z3

1	0.0	-10.923603007389792	731.351907486173	235.4849318953925	-145.15855399423032	560.6850805371321	11.288064322045017	-120.27355721246809	315.6733353976914	27.89368297668284
2	0.005	-10.92726559721538	731.3181696161855	235.45877813304776	-145.12396853287441	560.6774900235887	11.241769690345409	-120.33654702705913	315.64838388936755	27.802995706441756
3	0.01	-10.930601140701235	731.283226070373	235.43378784492975	-145.09007030841155	560.6698509013884	11.195924130846707	-120.40067088255742	315.6219910494948	27.70972079098033
4	0.015	-10.933579477460405	731.2470909118442	235.41007653970553	-145.05700371138272	560.6622026218563	11.15069017717557	-120.46570254316079	315.5942178795989	27.61417527938064
5	0.02	-10.936169983099765	731.209781279982	235.38775990221166	-145.02491683181515	560.6545869628646	11.106235796469154	-120.53139828612508	315.56513514047685	27.51670471905681
6	0.025	-10.938341623572876	731.171317447324	235.36695345701568	-144.99396113527746	560.6470479723985	11.062734133766934	-120.59749681359747	315.53482358500247	27.417683327709703
7	0.03	-10.940063010590071	731.1317228699568	235.3477722280193	-144.96429111772164	560.6396318991166	11.020363237164185	-120.66371921848851	315.5033741628409	27.317514064302603
8	0.035	-10.941302457837542	731.091024230998	235.3303303955131	-144.93606393966303	560.632387109549	10.9793057642528	-120.72976900655377	315.47088819502017	27.21662859436139
9	0.04	-10.942028037759458	731.0492514767594	235.31474095209555	-144.90943904032375	560.625363991617	10.939748670419503	-120.79533217668413	315.43747751636204	27.115487145187295
10	0.045	-10.94220763866148	731.0064378451756	235.30111535886638	-144.8845777324422	560.6186148442177	10.901882879613076	-120.86007736121496	315.40326458384084	27.0145782468906
11	0.05	-10.941809021900289	730.9626198860992	235.28956320328948	-144.86164277852396	560.6121937526711	10.865902938231413	-120.9236560278573	315.3683825490199	26.9144183555075
12	0.055	-10.940799878931998	730.9178374730728	235.28019186010147	-144.8407979493859	560.6061564498895	10.83200665281619	-120.98570274463226	315.3329752928027	26.815551354849386
13	0.06	-10.939147888001992	730.8721338062006	235.2731061566141	-144.822207565918	560.6005601631953	10.800394712278345	-121.04583550895113	315.29719742083944	26.718547934152635
14	0.065	-10.93682077026962	730.8255554057615	235.2684080437234	-144.80603602506207	560.59546344678	10.77127029541132	-121.10365614173367	315.2612142180416	26.62400483904614
15	0.07	-10.933786345173628	730.7781520962229	235.26619627390036	-144.7924473110784	560.5909259998659	10.744838664481646	-121.1587507471925	315.22520156078406	26.532543993832377
16	0.075	-10.93001258485731	730.7299769803376	235.26656608739117	-144.78160449324608	560.587008470711	10.721306745718099	-121.21069023863691	315.18934578550557	26.444811493583657
17	0.08	-10.92546766748643	730.6810864030299	235.2696089078064	-144.7736692112124	560.5837722466663	10.700882697551235	-121.25903093036536	315.1538435125668	26.3614764650872
18	0.085	-10.920120029307645	730.6315399048044	235.27541204822342	-144.76880114927928	560.5812792305826	10.683775467485228	-121.30331519542287	315.1189014243789	26.283229796228486
19	0.09	-10.913938415310497	730.5814001644399	235.28405842886943	-144.76715750098396	560.5795916039322	10.670194338513161	-121.34307218870103	315.08473599698084	26.2107827339805
20	0.095	-10.906891928371323	730.5307329307616	235.29562630739056	-144.76889242539934	560.5787715771014	10.660348466015682	-121.37781863455345	315.0515731844183	26.14486535176434
21	0.1	-10.89895007677348	730.479606943321	235.31018902265032	-144.77415649664744	560.5788811273861	10.654446406111076	-121.40705967779296	315.01964805545833	26.086224887562548
22	0.105	-10.89008282001384	730.4280938418433	235.32781475293336	-144.78309614818312	560.5799817253079	10.65269563645234	-121.43028979662733	314.98920438236667	26.035623954797227
23	0.11	-10.880260612821502	730.3762680643467	235.3485662893629	-144.79585311346867	560.5821340499491	10.655302070493839	-121.44699377578151	314.9604941816692	25.993838628628936
24	0.115	-10.86945444733005	730.3242067338691	235.37250082527157	-144.8125638647203	560.5853976940896	10.66246956627631	-121.45664773774777	314.9337772070279	25.961656410985647
25	0.12	-10.857635893360134	730.2719895337847	235.39966976219353	-144.83335905146438	560.5898308600094	10.674399430804533	-121.45872022980214	314.909320394568	25.939874078291737
26	0.125	-10.844777136784067	730.2196985717334	235.43011853307488	-144.85836294069566	560.5954900469021	10.69128992111667	-121.45267336412782	314.8873972612125	25.929295416531637
27	0.13	-10.830851015958482	730.1674182322264	235.4638864432283	-144.8876928604795	560.6024297309228	10.71333574316788	-121.43796400809637	314.868287256798	25.93072884894812
28	0.135	-10.815831056225079	730.1152350180388	235.50100652948416	-144.92145864888732	560.6107020389733	10.7407275496734	-121.41404502147688	314.85227507096977	25.944984962338097
